<svg width="915" height="846" viewBox="0 0 915 846" fill="none" xmlns="http://www.w3.org/2000/svg">
<path d="M439.787 431.679C536.537 609.712 592.54 767.22 566.994 788.461C566.628 788.994 565.997 789.343 565.365 789.693C535.856 805.865 431.889 671.446 333.307 489.805C234.725 308.164 178.487 148.146 207.995 131.974C237.055 115.885 341.022 250.305 439.787 431.679Z" stroke="#10069F" stroke-width="1.6875" stroke-miterlimit="10" stroke-linejoin="round"/>
<path d="M348.404 55.23L348.221 55.4963L207.726 131.794L207.993 131.976C237.501 115.804 341.469 250.224 440.051 431.864C536.801 609.897 592.804 767.405 567.258 788.647L706.04 713.132C706.04 713.132 706.222 712.866 706.489 713.049C735.997 696.877 679.942 536.592 581.177 355.217C482.063 173.211 377.912 39.0581 348.404 55.23Z" stroke="#10069F" stroke-width="1.6875" stroke-miterlimit="10" stroke-linejoin="round"/>
</svg>
