<svg width="486" height="471" viewBox="0 0 486 471" fill="none" xmlns="http://www.w3.org/2000/svg">
<path d="M237.867 242.384C306.624 293.42 356.11 343.836 350.096 356.523C350.051 356.792 349.871 357.038 349.691 357.285C341.256 368.733 277.49 335.7 207.389 283.607C137.288 231.514 87.2653 180.177 95.7002 168.729C103.978 157.392 167.743 190.426 237.867 242.384Z" stroke="#10069F" stroke-width="1.6875" stroke-miterlimit="10" stroke-linejoin="round"/>
<path d="M135.872 114.334L135.85 114.468L95.5654 168.708L95.6999 168.73C104.135 157.282 167.9 190.315 238.001 242.408C306.758 293.444 356.244 343.86 350.23 356.547L389.997 302.912C389.997 302.912 390.02 302.778 390.155 302.8C398.589 291.352 348.589 239.88 278.466 187.922C208.095 135.784 144.307 102.885 135.872 114.334Z" stroke="#10069F" stroke-width="1.6875" stroke-miterlimit="10" stroke-linejoin="round"/>
</svg>
