<svg width="905" height="876" viewBox="0 0 905 876" fill="none" xmlns="http://www.w3.org/2000/svg">
<path d="M442.974 450.135C571.049 545.381 663.206 639.439 651.974 663.077C651.889 663.579 651.553 664.038 651.218 664.497C635.476 685.823 516.673 624.141 386.094 526.923C255.514 429.704 162.359 333.929 178.101 312.603C193.549 291.486 312.352 353.167 442.974 450.135Z" stroke="#10069F" stroke-width="1.6875" stroke-miterlimit="10" stroke-linejoin="round"/>
<path d="M253.072 211.278L253.029 211.528L177.849 312.562L178.099 312.604C193.841 291.279 312.644 352.96 443.223 450.179C571.299 545.425 663.456 639.483 652.224 663.121L726.44 563.214C726.44 563.214 726.482 562.963 726.733 563.006C742.475 541.68 649.362 445.654 518.74 348.686C387.659 251.383 268.814 189.952 253.072 211.278Z" stroke="#10069F" stroke-width="1.6875" stroke-miterlimit="10" stroke-linejoin="round"/>
</svg>
