<svg width="423" height="446" viewBox="0 0 423 446" fill="none" xmlns="http://www.w3.org/2000/svg">
<path d="M205.695 216.312C142.596 274.196 83.743 313.273 72.4198 304.972C72.1641 304.877 71.956 304.653 71.748 304.43C62.0981 293.985 106.577 237.604 170.968 178.599C235.36 119.594 295.218 80.164 304.868 90.6087C314.437 100.878 269.959 157.26 205.695 216.312Z" stroke="#10069F" stroke-width="1.6875" stroke-miterlimit="10" stroke-linejoin="round"/>
<path d="M350.7 140.329L350.572 140.281L304.914 90.4806L304.866 90.6085C314.516 101.053 270.038 157.435 205.646 216.44C142.546 274.324 83.6938 313.401 72.3706 305.1L117.532 354.278C117.532 354.278 117.66 354.326 117.612 354.454C127.262 364.898 187.248 325.516 251.512 266.463C315.999 207.203 360.349 150.774 350.7 140.329Z" stroke="#10069F" stroke-width="1.6875" stroke-miterlimit="10" stroke-linejoin="round"/>
</svg>
