<svg width="260" height="273" viewBox="0 0 260 273" fill="none" xmlns="http://www.w3.org/2000/svg">
<path d="M128.582 131.998C78.8884 146.386 36.543 151.735 32.6433 144.202C32.5305 144.081 32.4779 143.905 32.4252 143.728C30.0066 135.484 69.2183 116.91 119.912 102.263C170.605 87.6156 213.59 82.3456 216.008 90.5897C218.431 98.7172 179.219 117.291 128.582 131.998Z" stroke="#10069F" stroke-width="1.6875" stroke-miterlimit="10" stroke-linejoin="round"/>
<path d="M227.465 129.805L227.409 129.745L216.068 90.5325L216.008 90.5889C218.427 98.833 179.215 117.407 128.521 132.054C78.8277 146.442 36.4824 151.79 32.5826 144.257L43.8219 183C43.8219 183 43.8783 183.06 43.8182 183.117C46.2368 191.361 89.2776 186.151 139.915 171.444C190.729 156.684 229.884 138.049 227.465 129.805Z" stroke="#10069F" stroke-width="1.6875" stroke-miterlimit="10" stroke-linejoin="round"/>
</svg>
