<svg width="755" height="801" viewBox="0 0 755 801" fill="none" xmlns="http://www.w3.org/2000/svg">
<path d="M386.853 412.419C510.477 311.461 624.182 245.047 644.364 261.708C644.83 261.913 645.193 262.351 645.556 262.788C662.395 283.259 573.584 383.415 447.437 486.319C321.289 589.223 205.675 656.187 188.836 635.717C172.128 615.582 260.938 515.426 386.853 412.419Z" stroke="#10069F" stroke-width="1.6875" stroke-miterlimit="10" stroke-linejoin="round"/>
<path d="M108.872 538.283L109.105 538.386L188.735 635.951L188.837 635.718C171.998 615.248 260.809 515.092 386.956 412.187C510.58 311.23 624.285 244.815 644.467 261.476L565.694 165.122C565.694 165.122 565.461 165.02 565.564 164.787C548.725 144.316 432.878 211.178 306.963 314.184C180.611 417.554 92.0331 517.813 108.872 538.283Z" stroke="#10069F" stroke-width="1.6875" stroke-miterlimit="10" stroke-linejoin="round"/>
</svg>
