<svg width="47" height="69" viewBox="0 0 47 69" fill="none" xmlns="http://www.w3.org/2000/svg">
<path d="M14.0741 0.460632L0.771973 7.12523L32.4801 68.3055L45.7823 61.6409C45.7823 61.6409 38.6856 47.9445 29.9309 31.0508C21.1762 14.1571 14.0741 0.460632 14.0741 0.460632Z" fill="#13239A"/>
<path d="M21.6892 35.2054C30.4439 52.0991 35.2831 66.9243 32.4962 68.3231C29.7094 69.7219 20.3498 57.1543 11.5951 40.2605C2.84042 23.3668 -1.99871 8.54161 0.788101 7.1428C3.57493 5.7494 12.9345 18.3117 21.6892 35.2054Z" fill="#13239A"/>
<path d="M35.0372 28.4933C43.7919 45.3871 48.6202 60.2177 45.8226 61.6219C43.025 63.0261 33.6546 50.4638 24.8998 33.5701C16.1451 16.6764 11.3168 1.84576 14.1144 0.441555C16.9121 -0.962655 26.2825 11.5996 35.0372 28.4933Z" fill="#13239A"/>
</svg>
