<svg width="47" height="69" viewBox="0 0 47 69" fill="none" xmlns="http://www.w3.org/2000/svg">
<path d="M45.9788 7.09879L32.6766 0.434204L0.968506 61.6145L14.2707 68.2791C14.2707 68.2791 21.3673 54.5827 30.1221 37.6889C38.8768 20.7952 45.9788 7.09879 45.9788 7.09879Z" fill="#13239A"/>
<path d="M21.8572 33.5679C13.1025 50.4616 3.74295 63.0238 0.956132 61.6304C-1.83068 60.2316 3.00844 45.4064 11.7631 28.5127C20.5178 11.619 29.8774 -0.943291 32.6643 0.450117C35.4511 1.84352 30.6119 16.6741 21.8572 33.5679Z" fill="#13239A"/>
<path d="M35.2279 40.2437C26.4732 57.1374 17.1028 69.6943 14.3052 68.2955C11.5076 66.8913 16.3359 52.0607 25.0906 35.167C33.8453 18.2733 43.2157 5.71639 46.0133 7.1152C48.8109 8.51401 43.9826 23.35 35.2279 40.2437Z" fill="#13239A"/>
</svg>
