<svg width="31" height="69" viewBox="0 0 31 69" fill="none" xmlns="http://www.w3.org/2000/svg">
<path d="M22.8866 0H8.0614V68.7576H22.8866V0Z" fill="#13239A"/>
<path d="M15.4762 34.3761C15.4762 53.3599 12.1547 68.7522 8.06092 68.7522C3.96711 68.7522 0.645508 53.3599 0.645508 34.3761C0.645508 15.3923 3.96711 0 8.06092 0C12.1547 0 15.4708 15.3923 15.4708 34.3761H15.4762Z" fill="#13239A"/>
<path d="M30.2996 34.3761C30.2996 53.3599 26.9781 68.7522 22.8843 68.7522C18.7905 68.7522 15.469 53.3599 15.469 34.3761C15.469 15.3923 18.7905 0 22.8843 0C26.9781 0 30.2942 15.3923 30.2942 34.3761H30.2996Z" fill="#13239A"/>
</svg>
