<svg width="524" height="445" viewBox="0 0 524 445" fill="none" xmlns="http://www.w3.org/2000/svg">
<path d="M259.144 191.497C342.103 218.169 406.29 250.551 404.648 264.745C404.692 265.019 404.599 265.316 404.506 265.612C400.126 279.405 327.869 268.446 243.269 241.195C158.668 213.945 93.6627 180.85 98.0432 167.058C102.309 153.424 174.566 164.383 259.144 191.497Z" stroke="#10069F" stroke-width="1.6875" stroke-miterlimit="10" stroke-linejoin="round"/>
<path d="M118.948 101.493L118.97 101.63L97.9059 167.081L98.043 167.059C102.424 153.266 174.68 164.225 259.281 191.475C342.24 218.148 406.427 250.53 404.785 264.724L425.548 200.025C425.548 200.025 425.526 199.888 425.663 199.866C430.043 186.073 365.015 152.842 280.437 125.728C195.563 98.522 123.328 87.7004 118.948 101.493Z" stroke="#10069F" stroke-width="1.6875" stroke-miterlimit="10" stroke-linejoin="round"/>
</svg>
