<svg width="258" height="270" viewBox="0 0 258 270" fill="none" xmlns="http://www.w3.org/2000/svg">
<path d="M130.005 139.668C178.811 127.665 220.126 124.146 223.614 131.613C223.719 131.734 223.763 131.908 223.807 132.081C225.829 140.179 187.033 156.66 137.246 168.875C87.4593 181.09 45.5263 184.507 43.5043 176.409C41.474 168.424 80.2704 151.943 130.005 139.668Z" stroke="#10069F" stroke-width="1.6875" stroke-miterlimit="10" stroke-linejoin="round"/>
<path d="M33.9328 137.89L33.9852 137.95L43.4444 176.462L43.505 176.409C41.483 168.311 80.2794 151.831 130.066 139.616C178.872 127.613 220.188 124.094 223.675 131.561L214.296 93.5094C214.296 93.5094 214.244 93.4488 214.304 93.3964C212.282 85.2984 170.297 88.655 120.563 100.931C70.6548 113.25 31.9108 129.792 33.9328 137.89Z" stroke="#10069F" stroke-width="1.6875" stroke-miterlimit="10" stroke-linejoin="round"/>
</svg>
